<svg id="Layer_1" data-name="Layer 1" xmlns="http://www.w3.org/2000/svg" viewBox="0 0 282.9 121.78"><defs><style>.cls-1{fill:#2b2523;}.cls-2{fill:#f0605f;}.cls-3{fill:#fff;}</style></defs><title>sls-logo-with-tagline</title><path class="cls-1" d="M23.19,60.81a10.94,10.94,0,0,1-1,4.9,10.15,10.15,0,0,1-2.82,3.52,12.29,12.29,0,0,1-4.16,2.12,17.74,17.74,0,0,1-5.09.71,18.09,18.09,0,0,1-3.41-.3A19.12,19.12,0,0,1,3.9,71a11.85,11.85,0,0,1-2-.89,5.72,5.72,0,0,1-1.16-.82,2.06,2.06,0,0,1-.51-1,9.35,9.35,0,0,1-.15-1.93q0-.85.05-1.42A4.11,4.11,0,0,1,.31,64a1,1,0,0,1,.33-.51.78.78,0,0,1,.48-.15,2.27,2.27,0,0,1,1.08.45A19.2,19.2,0,0,0,4,64.8a16,16,0,0,0,2.61,1,12.32,12.32,0,0,0,3.52.45,8.14,8.14,0,0,0,2.35-.31A5.27,5.27,0,0,0,14.23,65a3.73,3.73,0,0,0,1.11-1.42,4.51,4.51,0,0,0,.38-1.89,3.3,3.3,0,0,0-.66-2.07,6.5,6.5,0,0,0-1.71-1.53A17.92,17.92,0,0,0,11,56.89q-1.34-.59-2.76-1.25a25,25,0,0,1-2.76-1.49,11.13,11.13,0,0,1-2.39-2A9.41,9.41,0,0,1,1.33,49.4a11.19,11.19,0,0,1,.29-8.27,9.19,9.19,0,0,1,2.54-3.2A10.84,10.84,0,0,1,7.94,36a17,17,0,0,1,7.13-.44,17.65,17.65,0,0,1,2.35.52,13.51,13.51,0,0,1,1.94.74,4.57,4.57,0,0,1,1.12.68,2,2,0,0,1,.37.47,2.21,2.21,0,0,1,.17.5,5.15,5.15,0,0,1,.09.79c0,.32,0,.72,0,1.19s0,1,0,1.34a5,5,0,0,1-.13.9,1.08,1.08,0,0,1-.27.52.68.68,0,0,1-.48.16,2.28,2.28,0,0,1-1-.38c-.44-.25-1-.53-1.61-.83a15.09,15.09,0,0,0-2.22-.82A9.8,9.8,0,0,0,12.66,41a6.64,6.64,0,0,0-2.05.29,4.27,4.27,0,0,0-1.46.8,3.16,3.16,0,0,0-.88,1.22A4,4,0,0,0,8,44.81a3.31,3.31,0,0,0,.64,2,6.16,6.16,0,0,0,1.72,1.53,18.37,18.37,0,0,0,2.45,1.26q1.37.59,2.79,1.24a27.45,27.45,0,0,1,2.79,1.49,11.17,11.17,0,0,1,2.43,2,9.3,9.3,0,0,1,1.72,2.74A9.54,9.54,0,0,1,23.19,60.81Z"/><path class="cls-1" d="M62.89,39a11.78,11.78,0,0,1-.07,1.35,3.75,3.75,0,0,1-.21.9,1.21,1.21,0,0,1-.34.51.72.72,0,0,1-.45.16H53V70.44a.76.76,0,0,1-.18.49,1.26,1.26,0,0,1-.59.36,6,6,0,0,1-1.11.22,18.44,18.44,0,0,1-3.47,0,6,6,0,0,1-1.11-.22,1.26,1.26,0,0,1-.59-.36.77.77,0,0,1-.18-.49V41.91H36.88a.7.7,0,0,1-.47-.16,1.29,1.29,0,0,1-.33-.51,3.79,3.79,0,0,1-.2-.9A11.67,11.67,0,0,1,35.81,39a12.32,12.32,0,0,1,.07-1.4,3.84,3.84,0,0,1,.2-.92,1.16,1.16,0,0,1,.33-.49.73.73,0,0,1,.47-.15H61.83a.75.75,0,0,1,.45.15,1.1,1.1,0,0,1,.34.49,3.8,3.8,0,0,1,.21.92A12.44,12.44,0,0,1,62.89,39Z"/><path class="cls-1" d="M107.17,58.24a16.62,16.62,0,0,1-1,5.83,11.46,11.46,0,0,1-2.82,4.35,12.24,12.24,0,0,1-4.6,2.71,19.49,19.49,0,0,1-6.29.93,20,20,0,0,1-6-.83A11.68,11.68,0,0,1,82,68.69a11.06,11.06,0,0,1-2.8-4.23,16.48,16.48,0,0,1-1-5.92V37a.8.8,0,0,1,.16-.49,1.19,1.19,0,0,1,.59-.35,6.23,6.23,0,0,1,1.11-.22,15.62,15.62,0,0,1,1.75-.08,15.34,15.34,0,0,1,1.72.08,5.87,5.87,0,0,1,1.09.22,1.26,1.26,0,0,1,.59.35.77.77,0,0,1,.18.49v20.9A11.54,11.54,0,0,0,86,61.56a6.73,6.73,0,0,0,1.49,2.56,6.13,6.13,0,0,0,2.33,1.52,8.58,8.58,0,0,0,3,.51,8.35,8.35,0,0,0,3-.52,6,6,0,0,0,2.27-1.52,6.8,6.8,0,0,0,1.44-2.46,10.17,10.17,0,0,0,.51-3.32V37a.81.81,0,0,1,.16-.49,1.17,1.17,0,0,1,.57-.35,5.9,5.9,0,0,1,1.11-.22,15.68,15.68,0,0,1,1.74-.08,15,15,0,0,1,1.71.08,5.83,5.83,0,0,1,1.08.22,1.17,1.17,0,0,1,.58.35.81.81,0,0,1,.16.49Z"/><path class="cls-1" d="M155.46,53.21a24.21,24.21,0,0,1-1.27,8.33,14.14,14.14,0,0,1-3.65,5.65,14.64,14.64,0,0,1-5.79,3.21,28.21,28.21,0,0,1-8.11,1h-8.45a2.23,2.23,0,0,1-1.52-.53,2.19,2.19,0,0,1-.62-1.74V38.3a2.19,2.19,0,0,1,.62-1.74,2.24,2.24,0,0,1,1.52-.53h9.08a25.45,25.45,0,0,1,8,1.11,14.57,14.57,0,0,1,5.55,3.28,14.08,14.08,0,0,1,3.43,5.38A21.46,21.46,0,0,1,155.46,53.21Zm-7.44.25a17.62,17.62,0,0,0-.59-4.68A9.94,9.94,0,0,0,145.55,45a8.75,8.75,0,0,0-3.34-2.48,13.55,13.55,0,0,0-5.35-.89h-3.64V65.73H137a14.1,14.1,0,0,0,5-.77,8.3,8.3,0,0,0,3.38-2.31,10,10,0,0,0,2-3.85A19.18,19.18,0,0,0,148,53.45Z"/><path class="cls-1" d="M193.55,68.6a10.43,10.43,0,0,1-.07,1.33,3.31,3.31,0,0,1-.21.86,1.1,1.1,0,0,1-.34.48.76.76,0,0,1-.45.15H174.71a2.23,2.23,0,0,1-1.52-.53,2.19,2.19,0,0,1-.62-1.74V38.3a2.18,2.18,0,0,1,.62-1.74,2.24,2.24,0,0,1,1.52-.53h17.67a.73.73,0,0,1,.44.14,1.05,1.05,0,0,1,.33.48,3.72,3.72,0,0,1,.21.88,11.15,11.15,0,0,1,.07,1.35,10.59,10.59,0,0,1-.07,1.3,3.49,3.49,0,0,1-.21.86,1.16,1.16,0,0,1-.33.48.69.69,0,0,1-.44.15H179.74V50.3h10.7a.74.74,0,0,1,.45.15,1.1,1.1,0,0,1,.34.46,3.22,3.22,0,0,1,.2.85,12.33,12.33,0,0,1,0,2.61,3.19,3.19,0,0,1-.2.84,1,1,0,0,1-.34.45.79.79,0,0,1-.45.14h-10.7v10h12.75a.75.75,0,0,1,.45.15,1.1,1.1,0,0,1,.34.48,3.32,3.32,0,0,1,.21.86A10.47,10.47,0,0,1,193.55,68.6Z"/><path class="cls-1" d="M240.29,68.91a2.75,2.75,0,0,1-.22,1.12,2.35,2.35,0,0,1-.59.82,2.28,2.28,0,0,1-.87.48,3.67,3.67,0,0,1-1,.15h-3.06a6.35,6.35,0,0,1-1.66-.19,3.28,3.28,0,0,1-1.29-.7,6.12,6.12,0,0,1-1.13-1.37A25.47,25.47,0,0,1,229.21,67L220.4,50.44q-.77-1.48-1.56-3.19t-1.42-3.32h-.05q.11,2,.16,3.92t.05,4V70.41a.84.84,0,0,1-.15.49,1.12,1.12,0,0,1-.52.37,4.27,4.27,0,0,1-1,.23,12.94,12.94,0,0,1-1.62.08,12.65,12.65,0,0,1-1.59-.08,4,4,0,0,1-1-.23,1,1,0,0,1-.49-.37.91.91,0,0,1-.14-.49V38.6a2.4,2.4,0,0,1,.75-1.93A2.74,2.74,0,0,1,213.7,36h3.86a7.33,7.33,0,0,1,1.75.18,3.57,3.57,0,0,1,1.27.59,4.57,4.57,0,0,1,1.05,1.14,14.57,14.57,0,0,1,1,1.79l6.89,12.94L230.73,55q.59,1.14,1.13,2.27l1.07,2.23q.52,1.09,1,2.19h0q-.08-1.92-.12-4t0-4V37.09a.79.79,0,0,1,.17-.49,1.28,1.28,0,0,1,.54-.38,3.54,3.54,0,0,1,1-.23,15.39,15.39,0,0,1,1.61-.07,14.75,14.75,0,0,1,1.56.07,3.06,3.06,0,0,1,1,.23,1.12,1.12,0,0,1,.48.38.91.91,0,0,1,.14.49Z"/><path class="cls-1" d="M282.76,39a11.14,11.14,0,0,1-.07,1.35,3.67,3.67,0,0,1-.2.9,1.22,1.22,0,0,1-.34.51.71.71,0,0,1-.45.16h-8.86V70.44a.75.75,0,0,1-.18.49,1.24,1.24,0,0,1-.59.36,6,6,0,0,1-1.11.22,18.44,18.44,0,0,1-3.47,0,6,6,0,0,1-1.11-.22,1.28,1.28,0,0,1-.59-.36.77.77,0,0,1-.18-.49V41.91h-8.86a.68.68,0,0,1-.46-.16,1.24,1.24,0,0,1-.33-.51,3.58,3.58,0,0,1-.21-.9,11.14,11.14,0,0,1-.07-1.35,11.77,11.77,0,0,1,.07-1.4,3.63,3.63,0,0,1,.21-.92,1.12,1.12,0,0,1,.33-.49.72.72,0,0,1,.46-.15h24.95a.75.75,0,0,1,.45.15,1.11,1.11,0,0,1,.34.49,3.72,3.72,0,0,1,.2.92A11.77,11.77,0,0,1,282.76,39Z"/><path class="cls-1" d="M10.35,100a6.65,6.65,0,0,1,0,.73,2.3,2.3,0,0,1-.11.49.63.63,0,0,1-.18.28.39.39,0,0,1-.25.09H1.2a1.18,1.18,0,0,1-.8-.28,1.15,1.15,0,0,1-.32-.92v-17a.41.41,0,0,1,.09-.26.67.67,0,0,1,.31-.19,3.06,3.06,0,0,1,.59-.11,7.49,7.49,0,0,1,.92,0,7.5,7.5,0,0,1,.92,0,3.08,3.08,0,0,1,.58.11.67.67,0,0,1,.31.19.41.41,0,0,1,.09.26v15H9.77a.43.43,0,0,1,.25.08.58.58,0,0,1,.18.26,2,2,0,0,1,.11.48A6.7,6.7,0,0,1,10.35,100Z"/><path class="cls-1" d="M29.6,100.08a6,6,0,0,1,0,.7,1.85,1.85,0,0,1-.11.46.55.55,0,0,1-.18.25.39.39,0,0,1-.24.08h-9.4a1.18,1.18,0,0,1-.8-.28,1.15,1.15,0,0,1-.32-.92V84.07a1.15,1.15,0,0,1,.32-.92,1.19,1.19,0,0,1,.8-.28H29a.4.4,0,0,1,.23.07.58.58,0,0,1,.17.25,1.91,1.91,0,0,1,.11.46,5.59,5.59,0,0,1,0,.71,5.39,5.39,0,0,1,0,.69,1.8,1.8,0,0,1-.11.45.64.64,0,0,1-.17.25.37.37,0,0,1-.23.08H22.3v4.57h5.65a.41.41,0,0,1,.24.08.6.6,0,0,1,.18.24,1.78,1.78,0,0,1,.11.45,5.87,5.87,0,0,1,0,.69,5.79,5.79,0,0,1,0,.69,1.71,1.71,0,0,1-.11.44.54.54,0,0,1-.18.24.43.43,0,0,1-.24.07H22.3V98.6H29a.42.42,0,0,1,.24.08.57.57,0,0,1,.18.25,1.88,1.88,0,0,1,.11.46A6,6,0,0,1,29.6,100.08Z"/><path class="cls-1" d="M53.83,100.16A5,5,0,0,1,54,101a.49.49,0,0,1-.12.45,1,1,0,0,1-.56.19c-.27,0-.64,0-1.11,0l-1.15,0a2.89,2.89,0,0,1-.63-.09.58.58,0,0,1-.3-.18,1,1,0,0,1-.15-.3l-1.26-3.76h-7L40.56,101a1.28,1.28,0,0,1-.15.34.64.64,0,0,1-.3.21,2.22,2.22,0,0,1-.59.11c-.26,0-.59,0-1,0a9.24,9.24,0,0,1-1,0,.79.79,0,0,1-.52-.21.57.57,0,0,1-.1-.47,4.82,4.82,0,0,1,.22-.81l5.77-16.59a1.36,1.36,0,0,1,.2-.4.71.71,0,0,1,.37-.23,3,3,0,0,1,.7-.1c.3,0,.69,0,1.18,0s1,0,1.36,0a3.73,3.73,0,0,1,.79.1.75.75,0,0,1,.4.24,1.46,1.46,0,0,1,.21.43ZM45.24,86.44h0l-2.64,8h5.3Z"/><path class="cls-1" d="M76.24,101.08a.58.58,0,0,1-.06.27.47.47,0,0,1-.27.18,2.72,2.72,0,0,1-.64.1c-.28,0-.66,0-1.14,0s-.73,0-1,0a2.1,2.1,0,0,1-.57-.11.62.62,0,0,1-.3-.2,1,1,0,0,1-.14-.29l-1.68-4.18q-.3-.71-.59-1.26a4.1,4.1,0,0,0-.64-.92,2.39,2.39,0,0,0-.82-.56,2.82,2.82,0,0,0-1.07-.19H66.16v7.13a.42.42,0,0,1-.09.26.69.69,0,0,1-.31.19,2.84,2.84,0,0,1-.58.11,9.69,9.69,0,0,1-1.84,0,2.89,2.89,0,0,1-.58-.11.61.61,0,0,1-.3-.19.43.43,0,0,1-.09-.26v-17a1.15,1.15,0,0,1,.33-.92,1.18,1.18,0,0,1,.8-.28h4.84c.49,0,.89,0,1.21,0l.87.07a7.81,7.81,0,0,1,2,.55,4.82,4.82,0,0,1,1.53,1,4.26,4.26,0,0,1,1,1.49,5.45,5.45,0,0,1,.33,2A5.77,5.77,0,0,1,75,89.72a4.4,4.4,0,0,1-.7,1.38,4.57,4.57,0,0,1-1.14,1.06,6.18,6.18,0,0,1-1.55.72,4.44,4.44,0,0,1,.79.49,4.12,4.12,0,0,1,.69.7,7,7,0,0,1,.61.94,12.24,12.24,0,0,1,.56,1.19l1.58,3.69c.15.37.24.63.29.8A1.54,1.54,0,0,1,76.24,101.08Zm-4.9-12.69a2.8,2.8,0,0,0-.42-1.56,2.29,2.29,0,0,0-1.37-.89,5.48,5.48,0,0,0-.66-.12,9.69,9.69,0,0,0-1,0H66.16v5.3H68.1a4.6,4.6,0,0,0,1.42-.2,2.8,2.8,0,0,0,1-.55,2.21,2.21,0,0,0,.61-.84A2.85,2.85,0,0,0,71.34,88.39Z"/><path class="cls-1" d="M100.37,100.24a1.46,1.46,0,0,1-.11.59,1.24,1.24,0,0,1-.31.43,1.18,1.18,0,0,1-.46.25,1.85,1.85,0,0,1-.54.08H97.32a3.32,3.32,0,0,1-.87-.1,1.71,1.71,0,0,1-.68-.37,3.32,3.32,0,0,1-.6-.72c-.19-.3-.41-.7-.65-1.18l-4.65-8.74q-.4-.78-.82-1.68c-.28-.6-.53-1.18-.75-1.75h0c0,.69.07,1.39.09,2.07s0,1.4,0,2.13V101a.44.44,0,0,1-.08.26.56.56,0,0,1-.27.2,2.08,2.08,0,0,1-.53.12,6.55,6.55,0,0,1-.85,0,6.37,6.37,0,0,1-.84,0,2,2,0,0,1-.52-.12.53.53,0,0,1-.26-.2.49.49,0,0,1-.07-.26V84.23a1.27,1.27,0,0,1,.4-1,1.46,1.46,0,0,1,1-.34h2a3.9,3.9,0,0,1,.93.09,1.9,1.9,0,0,1,.67.31,2.45,2.45,0,0,1,.56.6,7.81,7.81,0,0,1,.53.95l3.64,6.84.63,1.22c.21.4.41.8.6,1.2l.56,1.18L97,96.41h0c0-.67,0-1.38-.06-2.11s0-1.43,0-2.1V83.44a.45.45,0,0,1,.08-.26.71.71,0,0,1,.29-.2,1.85,1.85,0,0,1,.54-.12,8.41,8.41,0,0,1,.85,0,8,8,0,0,1,.82,0A1.6,1.6,0,0,1,100,83a.58.58,0,0,1,.25.2.47.47,0,0,1,.07.26Z"/><path class="cls-1" d="M114.18,101.05a.4.4,0,0,1-.1.26.67.67,0,0,1-.31.19,2.91,2.91,0,0,1-.58.11,9.68,9.68,0,0,1-1.84,0,2.9,2.9,0,0,1-.59-.11.67.67,0,0,1-.31-.19.4.4,0,0,1-.1-.26V83.39a.4.4,0,0,1,.1-.26.68.68,0,0,1,.32-.19,3.27,3.27,0,0,1,.59-.11,7.29,7.29,0,0,1,.91,0,7.51,7.51,0,0,1,.93,0,3.14,3.14,0,0,1,.58.11.68.68,0,0,1,.31.19.4.4,0,0,1,.1.26Z"/><path class="cls-1" d="M139.6,100.24a1.41,1.41,0,0,1-.12.59,1.19,1.19,0,0,1-.77.69,1.87,1.87,0,0,1-.54.08h-1.62a3.34,3.34,0,0,1-.88-.1,1.71,1.71,0,0,1-.68-.37,3.33,3.33,0,0,1-.6-.72c-.19-.3-.41-.7-.65-1.18l-4.65-8.74q-.4-.78-.83-1.68c-.28-.6-.53-1.18-.75-1.75h0c0,.69.07,1.39.09,2.07s0,1.4,0,2.13V101a.45.45,0,0,1-.08.26.57.57,0,0,1-.28.2,2.08,2.08,0,0,1-.53.12,6.53,6.53,0,0,1-.85,0,6.37,6.37,0,0,1-.84,0,2,2,0,0,1-.52-.12.52.52,0,0,1-.26-.2.46.46,0,0,1-.07-.26V84.23a1.27,1.27,0,0,1,.4-1,1.46,1.46,0,0,1,1-.34h2a3.89,3.89,0,0,1,.93.09,1.9,1.9,0,0,1,.67.31,2.43,2.43,0,0,1,.56.6,7.62,7.62,0,0,1,.53.95l3.64,6.84.63,1.22c.21.4.41.8.6,1.2l.56,1.18c.18.39.36.77.53,1.16h0c0-.67,0-1.38-.07-2.11s0-1.43,0-2.1V83.44a.43.43,0,0,1,.09-.26.67.67,0,0,1,.29-.2,1.84,1.84,0,0,1,.53-.12,8.42,8.42,0,0,1,.85,0,8.11,8.11,0,0,1,.83,0,1.58,1.58,0,0,1,.51.12.61.61,0,0,1,.26.2.5.5,0,0,1,.07.26Z"/><path class="cls-1" d="M164.6,85.78a5.75,5.75,0,0,1,0,.72,2,2,0,0,1-.1.48.52.52,0,0,1-.16.25.35.35,0,0,1-.22.07,1.4,1.4,0,0,1-.61-.26,8.71,8.71,0,0,0-1.11-.56,11.75,11.75,0,0,0-1.66-.56,8.52,8.52,0,0,0-2.23-.26,6.2,6.2,0,0,0-2.46.47,5.39,5.39,0,0,0-1.88,1.33,6,6,0,0,0-1.2,2.07,8.06,8.06,0,0,0-.42,2.67,8.53,8.53,0,0,0,.43,2.82,5.71,5.71,0,0,0,1.19,2A4.94,4.94,0,0,0,156,98.31a6.5,6.5,0,0,0,2.38.42,5.55,5.55,0,0,0,1.26-.14,4.51,4.51,0,0,0,1.16-.43V93.81h-3.54c-.17,0-.31-.11-.41-.33a3,3,0,0,1-.14-1.1,5.24,5.24,0,0,1,0-.68,1.69,1.69,0,0,1,.11-.44A.68.68,0,0,1,157,91a.37.37,0,0,1,.23-.08h6.31A1,1,0,0,1,164,91a.86.86,0,0,1,.32.24,1.07,1.07,0,0,1,.21.38,1.64,1.64,0,0,1,.07.51v7.44a1.77,1.77,0,0,1-.15.76,1.08,1.08,0,0,1-.62.51,12.17,12.17,0,0,1-1.16.39c-.46.13-.94.25-1.44.35a15.16,15.16,0,0,1-1.5.22c-.51,0-1,.07-1.53.07a11.7,11.7,0,0,1-4-.64,7.86,7.86,0,0,1-4.88-4.84,11.37,11.37,0,0,1-.65-4,11.56,11.56,0,0,1,.69-4.13,8.77,8.77,0,0,1,2-3.11,8.53,8.53,0,0,1,3.07-2,11.27,11.27,0,0,1,4-.68,13.56,13.56,0,0,1,2.21.17,12.86,12.86,0,0,1,1.74.4,6.77,6.77,0,0,1,1.24.51,3.19,3.19,0,0,1,.69.48,1.22,1.22,0,0,1,.28.57A5.14,5.14,0,0,1,164.6,85.78Z"/><path class="cls-1" d="M198.07,96a5.78,5.78,0,0,1-.55,2.59,5.33,5.33,0,0,1-1.49,1.86,6.48,6.48,0,0,1-2.2,1.12,9.36,9.36,0,0,1-2.69.38,9.67,9.67,0,0,1-1.8-.16,10,10,0,0,1-1.46-.38,6.22,6.22,0,0,1-1.06-.47,3,3,0,0,1-.61-.43,1.08,1.08,0,0,1-.27-.54,4.82,4.82,0,0,1-.08-1c0-.3,0-.55,0-.75a2.43,2.43,0,0,1,.09-.49.56.56,0,0,1,.17-.27.43.43,0,0,1,.25-.08,1.2,1.2,0,0,1,.57.24,9.42,9.42,0,0,0,.95.53,8.22,8.22,0,0,0,1.38.53,6.48,6.48,0,0,0,1.86.24,4.29,4.29,0,0,0,1.24-.17,2.76,2.76,0,0,0,.93-.47,2,2,0,0,0,.58-.75,2.35,2.35,0,0,0,.21-1,1.76,1.76,0,0,0-.35-1.09,3.42,3.42,0,0,0-.9-.81,9.48,9.48,0,0,0-1.27-.67l-1.46-.66a13.67,13.67,0,0,1-1.46-.79,5.88,5.88,0,0,1-1.27-1.06,5,5,0,0,1-.9-1.45,5.93,5.93,0,0,1,.16-4.37A4.82,4.82,0,0,1,188,83.88a5.71,5.71,0,0,1,2-1,9.11,9.11,0,0,1,5,0,7.23,7.23,0,0,1,1,.39,2.38,2.38,0,0,1,.59.36,1,1,0,0,1,.19.25,1.13,1.13,0,0,1,.09.27,2.56,2.56,0,0,1,0,.42c0,.17,0,.38,0,.63s0,.52,0,.71a2.69,2.69,0,0,1-.07.48.54.54,0,0,1-.15.27.35.35,0,0,1-.25.09,1.18,1.18,0,0,1-.51-.2c-.23-.13-.52-.28-.85-.44A8,8,0,0,0,194,85.7a5.2,5.2,0,0,0-1.46-.19,3.49,3.49,0,0,0-1.09.15,2.24,2.24,0,0,0-.77.42,1.65,1.65,0,0,0-.46.64,2.09,2.09,0,0,0-.15.79,1.74,1.74,0,0,0,.34,1.08,3.25,3.25,0,0,0,.91.81,9.76,9.76,0,0,0,1.29.66l1.48.66a15,15,0,0,1,1.47.79,6,6,0,0,1,1.29,1.05,4.9,4.9,0,0,1,.91,1.45A5.08,5.08,0,0,1,198.07,96Z"/><path class="cls-1" d="M219.71,88.55a7.42,7.42,0,0,1-.49,2.79,5.38,5.38,0,0,1-1.43,2,6.3,6.3,0,0,1-2.31,1.26,10.65,10.65,0,0,1-3.22.43H210.7v6a.41.41,0,0,1-.1.26.67.67,0,0,1-.31.19,2.93,2.93,0,0,1-.58.11,9.68,9.68,0,0,1-1.84,0,3,3,0,0,1-.59-.11.62.62,0,0,1-.3-.19.44.44,0,0,1-.09-.26V84.23a1.34,1.34,0,0,1,.36-1,1.3,1.3,0,0,1,.93-.34h4.41q.66,0,1.26.05a14,14,0,0,1,1.44.22,6.42,6.42,0,0,1,1.7.61,5.13,5.13,0,0,1,1.47,1.14,4.72,4.72,0,0,1,.92,1.6A6.25,6.25,0,0,1,219.71,88.55Zm-4,.28a3.38,3.38,0,0,0-.34-1.62,2.41,2.41,0,0,0-.85-.94,2.81,2.81,0,0,0-1.06-.38,8.1,8.1,0,0,0-1.15-.08H210.7v6.35h1.71a4.07,4.07,0,0,0,1.52-.25,2.6,2.6,0,0,0,1-.69,3,3,0,0,0,.59-1.05A4.27,4.27,0,0,0,215.73,88.83Z"/><path class="cls-1" d="M241.88,100.16a5.11,5.11,0,0,1,.22.82.5.5,0,0,1-.12.45.93.93,0,0,1-.56.19c-.27,0-.64,0-1.11,0l-1.15,0a2.84,2.84,0,0,1-.63-.09.57.57,0,0,1-.31-.18,1,1,0,0,1-.14-.3l-1.26-3.76h-7L228.62,101a1.09,1.09,0,0,1-.15.34.62.62,0,0,1-.3.21,2.19,2.19,0,0,1-.59.11c-.25,0-.59,0-1,0a9.24,9.24,0,0,1-1,0,.78.78,0,0,1-.52-.21.56.56,0,0,1-.1-.47,4.74,4.74,0,0,1,.22-.81l5.77-16.59a1.55,1.55,0,0,1,.2-.4.73.73,0,0,1,.37-.23,3,3,0,0,1,.7-.1c.3,0,.69,0,1.19,0s1,0,1.36,0a3.71,3.71,0,0,1,.79.1.78.78,0,0,1,.41.24,1.36,1.36,0,0,1,.21.43ZM233.3,86.44h0l-2.65,8h5.3Z"/><path class="cls-1" d="M263,98.74c0,.24,0,.45,0,.61a3,3,0,0,1-.06.43,1.23,1.23,0,0,1-.11.31,1.48,1.48,0,0,1-.23.3,3,3,0,0,1-.61.43,7.12,7.12,0,0,1-1.11.5,10.31,10.31,0,0,1-6.8,0,6.77,6.77,0,0,1-2.63-1.77,7.87,7.87,0,0,1-1.66-2.94,13.2,13.2,0,0,1-.58-4.1,13,13,0,0,1,.64-4.23,8.79,8.79,0,0,1,1.78-3.11,7.43,7.43,0,0,1,2.74-1.91,9.23,9.23,0,0,1,3.52-.65,8.58,8.58,0,0,1,1.5.13,9.52,9.52,0,0,1,1.34.34,6.86,6.86,0,0,1,1.11.49,3.31,3.31,0,0,1,.68.47,1.58,1.58,0,0,1,.27.33,1.2,1.2,0,0,1,.12.33,3.92,3.92,0,0,1,.07.48c0,.18,0,.41,0,.68s0,.53,0,.74a2,2,0,0,1-.1.49.67.67,0,0,1-.17.27.34.34,0,0,1-.23.09,1,1,0,0,1-.55-.25,9.42,9.42,0,0,0-.86-.56,7.26,7.26,0,0,0-1.26-.56,5.41,5.41,0,0,0-1.74-.25,4.13,4.13,0,0,0-3.48,1.75,6.16,6.16,0,0,0-.93,2,10.68,10.68,0,0,0-.32,2.7,10.52,10.52,0,0,0,.34,2.85,5.51,5.51,0,0,0,1,2,3.93,3.93,0,0,0,1.52,1.16,5,5,0,0,0,2,.38,5.64,5.64,0,0,0,1.75-.24,7,7,0,0,0,1.26-.53c.35-.19.64-.37.87-.52a1.09,1.09,0,0,1,.53-.23.4.4,0,0,1,.23.06.42.42,0,0,1,.15.23,2.31,2.31,0,0,1,.09.48C263,98.12,263,98.39,263,98.74Z"/><path class="cls-1" d="M282.75,100.08a5.74,5.74,0,0,1,0,.7,1.83,1.83,0,0,1-.11.46.57.57,0,0,1-.18.25.39.39,0,0,1-.24.08h-9.39a1.18,1.18,0,0,1-.8-.28,1.16,1.16,0,0,1-.32-.92V84.07a1.16,1.16,0,0,1,.32-.92,1.19,1.19,0,0,1,.8-.28h9.33a.4.4,0,0,1,.23.07.56.56,0,0,1,.17.25,1.92,1.92,0,0,1,.11.46,5.82,5.82,0,0,1,0,.71,5.64,5.64,0,0,1,0,.69,1.81,1.81,0,0,1-.11.45.61.61,0,0,1-.17.25.36.36,0,0,1-.23.08h-6.67v4.57h5.65a.4.4,0,0,1,.24.08.62.62,0,0,1,.18.24,1.73,1.73,0,0,1,.1.45,6.28,6.28,0,0,1,0,1.38,1.66,1.66,0,0,1-.1.44.56.56,0,0,1-.18.24.41.41,0,0,1-.24.07h-5.65V98.6h6.74a.41.41,0,0,1,.24.08.59.59,0,0,1,.18.25,1.85,1.85,0,0,1,.11.46A5.76,5.76,0,0,1,282.75,100.08Z"/><rect class="cls-2" width="107.17" height="17.7"/><path class="cls-3" d="M4.53,10.67l2.06-.2A2.5,2.5,0,0,0,7.34,12a2.27,2.27,0,0,0,1.53.49A2.36,2.36,0,0,0,10.41,12a1.29,1.29,0,0,0,.52-1,1,1,0,0,0-.22-.63,1.72,1.72,0,0,0-.76-.45q-.37-.13-1.69-.46a5.76,5.76,0,0,1-2.38-1,2.74,2.74,0,0,1-.51-3.6A2.83,2.83,0,0,1,6.67,3.8a5.21,5.21,0,0,1,2.06-.36,4.42,4.42,0,0,1,3,.86,3,3,0,0,1,1,2.3l-2.11.09A1.77,1.77,0,0,0,10,5.54a2.11,2.11,0,0,0-1.34-.35,2.41,2.41,0,0,0-1.44.38.76.76,0,0,0-.33.65.8.8,0,0,0,.31.64,5.55,5.55,0,0,0,1.94.7,10.31,10.31,0,0,1,2.28.75,3,3,0,0,1,1.16,1.06A3.12,3.12,0,0,1,13,11a3.07,3.07,0,0,1-.5,1.68,3,3,0,0,1-1.41,1.17,5.91,5.91,0,0,1-2.27.38,4.53,4.53,0,0,1-3-.92A4,4,0,0,1,4.53,10.67Z"/><path class="cls-3" d="M16.21,14.07V3.61h2.11V14.07Z"/><path class="cls-3" d="M21.81,14.07V3.61h2.06l4.28,7v-7h2V14.07H28L23.78,7.25v6.82Z"/><path class="cls-3" d="M38.67,10.23V8.46h4.55v4.17a5.63,5.63,0,0,1-1.92,1.13,7,7,0,0,1-2.55.49,5.73,5.73,0,0,1-2.86-.69,4.39,4.39,0,0,1-1.83-2,6.35,6.35,0,0,1-.61-2.79,6,6,0,0,1,.69-2.9,4.61,4.61,0,0,1,2-1.95,5.42,5.42,0,0,1,2.5-.52,5,5,0,0,1,3,.82,3.68,3.68,0,0,1,1.41,2.26L41,6.9a2.22,2.22,0,0,0-.83-1.22,2.52,2.52,0,0,0-1.52-.44,2.86,2.86,0,0,0-2.2.88,3.69,3.69,0,0,0-.82,2.6,4.08,4.08,0,0,0,.83,2.79,2.76,2.76,0,0,0,2.17.93,3.65,3.65,0,0,0,1.33-.26,4.51,4.51,0,0,0,1.15-.63V10.23Z"/><path class="cls-3" d="M56.06,14.07h-2.3l-.91-2.37H48.67l-.86,2.37H45.57L49.64,3.61h2.23ZM52.17,9.93,50.73,6.05,49.32,9.93Z"/><path class="cls-3" d="M58.64,14.07V3.61H62a12.39,12.39,0,0,1,2.51.16,2.75,2.75,0,0,1,1.5,1,3.25,3.25,0,0,1,.61,2,3.41,3.41,0,0,1-.35,1.62,2.87,2.87,0,0,1-.89,1,3.1,3.1,0,0,1-1.1.5,12.07,12.07,0,0,1-2.19.15H60.75v3.94Zm2.11-8.69v3h1.16a5.5,5.5,0,0,0,1.67-.16,1.37,1.37,0,0,0,.9-1.33,1.36,1.36,0,0,0-.33-.94,1.46,1.46,0,0,0-.85-.46,10.31,10.31,0,0,0-1.52-.07Z"/><path class="cls-3" d="M69.41,8.91a6.66,6.66,0,0,1,.48-2.68,4.9,4.9,0,0,1,1-1.43,4.07,4.07,0,0,1,1.35-.94,5.76,5.76,0,0,1,2.25-.41,4.91,4.91,0,0,1,3.7,1.43,5.49,5.49,0,0,1,1.39,4,5.47,5.47,0,0,1-1.38,4,5.5,5.5,0,0,1-7.39,0A5.4,5.4,0,0,1,69.41,8.91Zm2.18-.07a3.91,3.91,0,0,0,.82,2.69,2.68,2.68,0,0,0,2.08.92,2.65,2.65,0,0,0,2.07-.91,4,4,0,0,0,.81-2.73,3.93,3.93,0,0,0-.79-2.68,2.92,2.92,0,0,0-4.2,0A4,4,0,0,0,71.59,8.84Z"/><path class="cls-3" d="M82.67,14.07V3.61h4.44a7.62,7.62,0,0,1,2.44.28,2.4,2.4,0,0,1,1.22,1,3,3,0,0,1,.46,1.65,2.79,2.79,0,0,1-.69,1.94,3.33,3.33,0,0,1-2.07,1,4.87,4.87,0,0,1,1.13.88A11.83,11.83,0,0,1,90.8,12l1.28,2H89.55L88,11.8a14.48,14.48,0,0,0-1.12-1.54,1.59,1.59,0,0,0-.63-.43,3.46,3.46,0,0,0-1.06-.12h-.43v4.36Zm2.11-6h1.56a8.06,8.06,0,0,0,1.9-.13,1.15,1.15,0,0,0,.59-.44,1.37,1.37,0,0,0,.21-.78,1.25,1.25,0,0,0-.28-.85A1.3,1.3,0,0,0,88,5.42c-.17,0-.69,0-1.54,0H84.79Z"/><path class="cls-3" d="M94.68,14.07V3.61h7.75V5.38H96.79V7.7H102V9.46H96.79v2.85h5.84v1.76Z"/><path class="cls-1" d="M.07,119.84v-8.63H1.83v7.17H6.2v1.47Z"/><path class="cls-1" d="M8.07,119.84v-8.7h6.45v1.47H9.82v1.93h4.37V116H9.82v2.37h4.86v1.47Z"/><path class="cls-1" d="M24.64,119.84H22.72l-.76-2H18.48l-.72,2H15.9l3.39-8.7h1.86Zm-3.24-3.44-1.2-3.23L19,116.39Z"/><path class="cls-1" d="M26.18,119.84v-8.7h3.7a6.36,6.36,0,0,1,2,.23,2,2,0,0,1,1,.84,2.52,2.52,0,0,1,.38,1.37,2.33,2.33,0,0,1-.58,1.62A2.76,2.76,0,0,1,31,116a4.13,4.13,0,0,1,.94.73,9.73,9.73,0,0,1,1,1.41l1.06,1.7h-2.1l-1.27-1.89a12.11,12.11,0,0,0-.93-1.28,1.32,1.32,0,0,0-.53-.36,2.91,2.91,0,0,0-.88-.1h-.36v3.63Zm1.76-5h1.3a6.65,6.65,0,0,0,1.58-.11.94.94,0,0,0,.49-.37,1.15,1.15,0,0,0,.18-.65,1,1,0,0,0-.23-.71,1.08,1.08,0,0,0-.66-.34c-.14,0-.57,0-1.28,0H27.94Z"/><path class="cls-1" d="M35.58,119.84v-8.7H37.3l3.56,5.81v-5.81h1.63v8.7H40.73l-3.51-5.68v5.68Z"/><path class="cls-1" d="M56.34,119.84H54.43l-.76-2H50.19l-.72,2H47.61l3.39-8.7h1.86Zm-3.24-3.44-1.2-3.23-1.17,3.23Z"/><path class="cls-1" d="M57.9,119.84v-8.7h1.71l3.56,5.81v-5.81h1.64v8.7H63l-3.51-5.68v5.68Z"/><path class="cls-1" d="M69.56,119.84v-3.66l-3.19-5h2.06l2,3.44,2-3.44h2l-3.2,5.05v3.65Z"/><path class="cls-1" d="M78,119.84v-7.23H75.37v-1.47h6.92v1.47H79.72v7.23Z"/><path class="cls-1" d="M84,119.84v-8.7h1.76v8.7Z"/><path class="cls-1" d="M88,119.84v-8.7h2.63l1.58,5.94,1.56-5.94h2.64v8.7H94.77V113L93,119.84h-1.7L89.63,113v6.85Z"/><path class="cls-1" d="M98.76,119.84v-8.7h6.46v1.47h-4.7v1.93h4.37V116h-4.37v2.37h4.86v1.47Z"/><path class="cls-1" d="M107.43,118.17h1.67v1.19a4.11,4.11,0,0,1-.12,1.14,1.68,1.68,0,0,1-.47.75,2.4,2.4,0,0,1-.88.52l-.33-.69a1.42,1.42,0,0,0,.72-.46,1.38,1.38,0,0,0,.23-.8h-.81Z"/><path class="cls-1" d="M122.86,119.84h-1.91l-.76-2H116.7l-.72,2h-1.87l3.39-8.7h1.86Zm-3.24-3.44-1.2-3.23-1.18,3.23Z"/><path class="cls-1" d="M124.41,119.84v-8.7h1.71l3.56,5.81v-5.81h1.63v8.7h-1.77L126,114.16v5.68Z"/><path class="cls-1" d="M136.07,119.84v-3.66l-3.19-5h2.06l2,3.44,2-3.44h2l-3.2,5.05v3.65Z"/><path class="cls-1" d="M143.74,119.84l-2.08-8.7h1.8l1.32,6,1.59-6h2.09l1.53,6.08,1.34-6.08h1.77l-2.11,8.7h-1.87l-1.73-6.51-1.73,6.51Z"/><path class="cls-1" d="M154.6,119.84v-8.7h1.76v3.42h3.44v-3.42h1.76v8.7H159.8V116h-3.44v3.81Z"/><path class="cls-1" d="M164,119.84v-8.7h6.45v1.47h-4.7v1.93h4.37V116h-4.37v2.37h4.86v1.47Z"/><path class="cls-1" d="M172.71,119.84v-8.7h3.7a6.36,6.36,0,0,1,2,.23,2,2,0,0,1,1,.84,2.54,2.54,0,0,1,.38,1.37,2.33,2.33,0,0,1-.58,1.62,2.77,2.77,0,0,1-1.73.8,4.07,4.07,0,0,1,.94.73,9.74,9.74,0,0,1,1,1.41l1.06,1.7h-2.1l-1.27-1.89a11.91,11.91,0,0,0-.93-1.28,1.33,1.33,0,0,0-.53-.36,2.9,2.9,0,0,0-.88-.1h-.36v3.63Zm1.76-5h1.3a6.66,6.66,0,0,0,1.58-.11,1,1,0,0,0,.49-.37,1.14,1.14,0,0,0,.18-.65,1,1,0,0,0-.23-.71,1.08,1.08,0,0,0-.66-.34c-.14,0-.57,0-1.28,0h-1.37Z"/><path class="cls-1" d="M182.1,119.84v-8.7h6.45v1.47h-4.69v1.93h4.37V116h-4.37v2.37h4.86v1.47Z"/><path class="cls-1" d="M190.76,118.17h1.67v1.19a4.23,4.23,0,0,1-.12,1.14,1.71,1.71,0,0,1-.47.75,2.43,2.43,0,0,1-.88.52l-.32-.69a1.42,1.42,0,0,0,.72-.46,1.37,1.37,0,0,0,.22-.8h-.81Z"/><path class="cls-1" d="M206.19,119.84h-1.92l-.76-2H200l-.72,2h-1.87l3.39-8.7h1.86ZM203,116.39l-1.2-3.23-1.18,3.23Z"/><path class="cls-1" d="M208.79,119.84v-7.23h-2.58v-1.47h6.92v1.47h-2.58v7.23Z"/><path class="cls-1" d="M226.25,119.84h-1.91l-.76-2H220.1l-.72,2h-1.87l3.39-8.7h1.85ZM223,116.39l-1.2-3.23-1.18,3.23Z"/><path class="cls-1" d="M227.81,119.84v-8.7h1.71l3.56,5.81v-5.81h1.63v8.7H233l-3.51-5.68v5.68Z"/><path class="cls-1" d="M239.47,119.84v-3.66l-3.19-5h2.06l2.05,3.44,2-3.44h2l-3.2,5.05v3.65Z"/><path class="cls-1" d="M249.67,119.84v-8.7h2.82a10.39,10.39,0,0,1,2.09.13,2.28,2.28,0,0,1,1.25.85,2.68,2.68,0,0,1,.51,1.69,2.84,2.84,0,0,1-.29,1.35,2.38,2.38,0,0,1-.74.86,2.55,2.55,0,0,1-.91.41,10,10,0,0,1-1.82.13h-1.15v3.28Zm1.76-7.23v2.47h1a4.53,4.53,0,0,0,1.39-.14,1.15,1.15,0,0,0,.75-1.1,1.12,1.12,0,0,0-.28-.78,1.23,1.23,0,0,0-.71-.39,8.21,8.21,0,0,0-1.27-.06Z"/><path class="cls-1" d="M265.34,119.84h-1.91l-.76-2h-3.48l-.72,2h-1.87l3.39-8.7h1.86Zm-3.24-3.44-1.2-3.23-1.17,3.23Z"/><path class="cls-1" d="M272.45,116.64l1.71.54a3.82,3.82,0,0,1-1.31,2.12,4.1,4.1,0,0,1-5.16-.49,4.53,4.53,0,0,1-1.12-3.24,4.76,4.76,0,0,1,1.12-3.37,3.85,3.85,0,0,1,3-1.2,3.63,3.63,0,0,1,2.6.95,3.43,3.43,0,0,1,.89,1.6l-1.74.41a1.8,1.8,0,0,0-1.84-1.46,2,2,0,0,0-1.57.69,3.43,3.43,0,0,0-.6,2.25,3.66,3.66,0,0,0,.59,2.35,1.93,1.93,0,0,0,1.54.7,1.75,1.75,0,0,0,1.21-.45A2.58,2.58,0,0,0,272.45,116.64Z"/><path class="cls-1" d="M276.27,119.84v-8.7h6.45v1.47H278v1.93h4.37V116H278v2.37h4.86v1.47Z"/></svg>