<svg xmlns="http://www.w3.org/2000/svg" viewBox="0 0 220.61 347.712">
  <defs>
    <style>
      .cls-1 {
        opacity: 0.536;
      }

      .cls-2 {
        fill: #a7a9ac;
      }

      .cls-3 {
        fill: #efc3a4;
      }

      .cls-4 {
        fill: #cda59a;
        opacity: 0.302;
      }

      .cls-5 {
        fill: #e7494d;
      }

      .cls-6 {
        fill: #116ca5;
      }

      .cls-7 {
        fill: rgba(167,169,172,0.56);
      }

      .cls-17, .cls-8 {
        fill: #0c3a48;
      }

      .cls-10, .cls-16, .cls-9 {
        fill: #e7b89e;
      }

      .cls-9 {
        opacity: 0.931;
      }

      .cls-10 {
        opacity: 0.878;
      }

      .cls-11, .cls-12 {
        fill: none;
        opacity: 0.487;
      }

      .cls-11 {
        stroke: #a9cadf;
      }

      .cls-12 {
        stroke: #aacadf;
      }

      .cls-13 {
        fill: #d7a092;
        opacity: 0.302;
      }

      .cls-14, .cls-18 {
        fill: #e59a88;
      }

      .cls-15 {
        fill: #fff;
      }

      .cls-16 {
        opacity: 0.478;
      }

      .cls-17 {
        opacity: 0.051;
      }

      .cls-18 {
        opacity: 0.517;
      }

      .cls-19 {
        fill: #e4b9a0;
      }
    </style>
  </defs>
  <g id="Group_1016" data-name="Group 1016" transform="translate(42.305 -76.506)">
    <g id="Group_1008" data-name="Group 1008" class="cls-1" transform="translate(-9.305 -863.494)">
      <rect id="Rectangle_381" data-name="Rectangle 381" class="cls-2" width="209.673" height="154.955" rx="60" transform="translate(-23.032 1039.268)"/>
      <rect id="Rectangle_382" data-name="Rectangle 382" class="cls-2" width="189.82" height="45.034" rx="22.517" transform="translate(-12.378 1069.291)"/>
      <rect id="Rectangle_380" data-name="Rectangle 380" class="cls-2" width="149.144" height="212.579" rx="6" transform="translate(7.959 1074.133)"/>
      <rect id="Rectangle_383" data-name="Rectangle 383" class="cls-2" width="149.144" height="174.324" rx="74.572" transform="translate(7.959 940)"/>
      <rect id="Rectangle_379" data-name="Rectangle 379" class="cls-2" width="149.144" height="239.212" rx="74.572" transform="translate(7.959 1005.372)"/>
      <rect id="Rectangle_391" data-name="Rectangle 391" class="cls-2" width="149.144" height="11.622" rx="5.811" transform="translate(7.959 999.561)"/>
      <rect id="Rectangle_386" data-name="Rectangle 386" class="cls-2" width="7.748" height="16.464" rx="3.874" transform="translate(33.14 1084.786)"/>
      <rect id="Rectangle_387" data-name="Rectangle 387" class="cls-2" width="7.748" height="16.464" rx="3.874" transform="translate(124.66 1084.786)"/>
      <rect id="Rectangle_388" data-name="Rectangle 388" class="cls-2" width="73.604" height="14.043" rx="7.021" transform="translate(45.73 1130.788)"/>
      <rect id="Rectangle_385" data-name="Rectangle 385" class="cls-2" width="41.644" height="87.162" transform="translate(61.709 1057.669)"/>
      <rect id="Rectangle_389" data-name="Rectangle 389" class="cls-2" width="12.106" height="80.383" transform="translate(5.054 1057.669)"/>
      <rect id="Rectangle_390" data-name="Rectangle 390" class="cls-2" width="11.622" height="80.383" transform="translate(145.482 1057.669)"/>
      <path id="Path_1088" data-name="Path 1088" class="cls-2" d="M850.507,1079.486H820v-28.057Z" transform="translate(-813.493 61.443)"/>
      <path id="Path_1089" data-name="Path 1089" class="cls-2" d="M820,1072.706h23.136v-21.278Z" transform="translate(-686.078 65.317)"/>
      <rect id="Rectangle_384" data-name="Rectangle 384" class="cls-2" width="211.61" height="52.297" rx="26.149" transform="translate(-24 1005.372)"/>
      <g id="Group_1006" data-name="Group 1006" transform="translate(45.73 1165.143)">
        <rect id="Rectangle_392" data-name="Rectangle 392" class="cls-2" width="73.604" height="10.623" transform="translate(0 0)"/>
        <ellipse id="Ellipse_6" data-name="Ellipse 6" class="cls-2" cx="36.802" cy="9.106" rx="36.802" ry="9.106" transform="translate(0 0.931)"/>
      </g>
    </g>
    <g id="Group_1014" data-name="Group 1014" transform="translate(-407 -639)">
      <rect id="Rectangle_380-2" data-name="Rectangle 380" class="cls-3" width="149.144" height="212.579" rx="20" transform="translate(396.654 850.639)"/>
      <rect id="Rectangle_394" data-name="Rectangle 394" class="cls-4" width="149.144" height="247.212" rx="74.572" transform="translate(396.654 787.877)"/>
      <rect id="Rectangle_381-2" data-name="Rectangle 381" class="cls-5" width="209.673" height="154.955" rx="60" transform="translate(365.663 815.774)"/>
      <rect id="Rectangle_382-2" data-name="Rectangle 382" class="cls-3" width="189.82" height="45.034" rx="22.517" transform="translate(376.316 845.796)"/>
      <rect id="Rectangle_383-2" data-name="Rectangle 383" class="cls-6" width="149.144" height="174.324" rx="74.572" transform="translate(396.654 716.506)"/>
      <rect id="Rectangle_379-2" data-name="Rectangle 379" class="cls-3" width="149.144" height="239.212" rx="74.572" transform="translate(396.654 781.877)"/>
      <rect id="Rectangle_391-2" data-name="Rectangle 391" class="cls-7" width="149.144" height="11.622" rx="5.811" transform="translate(396.654 776.067)"/>
      <rect id="Rectangle_400" data-name="Rectangle 400" class="cls-7" width="149.144" height="13.622" rx="6.811" transform="translate(396.654 824.067)"/>
      <rect id="Rectangle_386-2" data-name="Rectangle 386" class="cls-8" width="7.748" height="16.464" rx="3.874" transform="translate(421.834 861.292)"/>
      <rect id="Rectangle_387-2" data-name="Rectangle 387" class="cls-8" width="7.748" height="16.464" rx="3.874" transform="translate(513.355 861.292)"/>
      <rect id="Rectangle_395" data-name="Rectangle 395" class="cls-9" width="5.644" height="16.162" rx="2.822" transform="translate(388.76 861.175)"/>
      <rect id="Rectangle_396" data-name="Rectangle 396" class="cls-10" width="5.644" height="16.162" rx="2.822" transform="translate(545.76 861.175)"/>
      <rect id="Rectangle_389-2" data-name="Rectangle 389" class="cls-5" width="12.106" height="80.383" transform="translate(393.749 834.175)"/>
      <rect id="Rectangle_390-2" data-name="Rectangle 390" class="cls-5" width="11.622" height="80.383" transform="translate(534.177 834.175)"/>
      <path id="Path_1088-2" data-name="Path 1088" class="cls-5" d="M841.681,1079.486H820v-28.057Z" transform="translate(-424.798 -162.051)"/>
      <path id="Path_1089-2" data-name="Path 1089" class="cls-5" d="M820,1072.706h18.757v-21.278Z" transform="translate(-293.004 -158.177)"/>
      <rect id="Rectangle_384-2" data-name="Rectangle 384" class="cls-6" width="211.61" height="52.297" rx="26.149" transform="translate(364.695 781.877)"/>
      <g id="Group_1006-2" data-name="Group 1006" transform="translate(434.425 941.648)">
        <rect id="Rectangle_392-2" data-name="Rectangle 392" class="cls-8" width="73.604" height="10.623" transform="translate(0 0)"/>
        <ellipse id="Ellipse_6-2" data-name="Ellipse 6" class="cls-8" cx="36.802" cy="9.106" rx="36.802" ry="9.106" transform="translate(0 0.931)"/>
      </g>
      <path id="Path_1090" data-name="Path 1090" class="cls-11" d="M265.654,837.574s-13.147,16.625,0,49.476" transform="translate(131 -54)"/>
      <path id="Path_1091" data-name="Path 1091" class="cls-12" d="M281.484,836.574s-19.787,15.661-2.032,49.38" transform="translate(131 -53)"/>
      <rect id="Rectangle_397" data-name="Rectangle 397" class="cls-13" width="51.604" height="10.043" rx="5.021" transform="translate(447.425 916.294)"/>
      <rect id="Rectangle_388-2" data-name="Rectangle 388" class="cls-14" width="73.604" height="14.043" rx="7.021" transform="translate(436.425 907.294)"/>
      <rect id="Rectangle_385-2" data-name="Rectangle 385" class="cls-14" width="42.644" height="87.162" transform="translate(451.404 834.175)"/>
      <rect id="Rectangle_398" data-name="Rectangle 398" class="cls-15" width="52" height="4" rx="1" transform="translate(447 942)"/>
      <rect id="Rectangle_399" data-name="Rectangle 399" class="cls-5" width="6.622" height="27.383" rx="3" transform="translate(457.796 960.177) rotate(-90)"/>
      <rect id="Rectangle_393" data-name="Rectangle 393" class="cls-16" width="3.644" height="73.162" transform="translate(493.76 834.175)"/>
      <rect id="Rectangle_403" data-name="Rectangle 403" class="cls-17" width="3.644" height="68.162" rx="1.822" transform="translate(390.76 889.175)"/>
      <rect id="Rectangle_404" data-name="Rectangle 404" class="cls-17" width="3.644" height="68.162" rx="1.822" transform="translate(544.76 889.175)"/>
      <rect id="Rectangle_401" data-name="Rectangle 401" class="cls-7" width="47.144" height="3.622" rx="1" transform="translate(450.654 834.067)"/>
      <g id="Group_1012" data-name="Group 1012">
        <circle id="Ellipse_7" data-name="Ellipse 7" class="cls-18" cx="1.237" cy="1.237" r="1.237" transform="translate(416.125 903.775)"/>
        <circle id="Ellipse_8" data-name="Ellipse 8" class="cls-18" cx="1.237" cy="1.237" r="1.237" transform="translate(418.6 898)"/>
        <circle id="Ellipse_9" data-name="Ellipse 9" class="cls-18" cx="1.237" cy="1.237" r="1.237" transform="translate(423.55 905.425)"/>
        <circle id="Ellipse_10" data-name="Ellipse 10" class="cls-18" cx="1.237" cy="1.237" r="1.237" transform="translate(417.775 910.375)"/>
        <circle id="Ellipse_11" data-name="Ellipse 11" class="cls-18" cx="1.237" cy="1.237" r="1.237" transform="translate(429.325 898)"/>
        <circle id="Ellipse_12" data-name="Ellipse 12" class="cls-18" cx="1.237" cy="1.237" r="1.237" transform="translate(424.375 900.475)"/>
        <circle id="Ellipse_13" data-name="Ellipse 13" class="cls-18" cx="1.237" cy="1.237" r="1.237" transform="translate(412 900.475)"/>
        <circle id="Ellipse_14" data-name="Ellipse 14" class="cls-18" cx="1.237" cy="1.237" r="1.237" transform="translate(424.375 912.025)"/>
        <circle id="Ellipse_15" data-name="Ellipse 15" class="cls-18" cx="1.237" cy="1.237" r="1.237" transform="translate(433.45 902.95)"/>
        <circle id="Ellipse_16" data-name="Ellipse 16" class="cls-18" cx="1.237" cy="1.237" r="1.237" transform="translate(428.5 905.425)"/>
      </g>
      <g id="Group_1013" data-name="Group 1013">
        <ellipse id="Ellipse_19" data-name="Ellipse 19" class="cls-18" cx="1.131" cy="1.131" rx="1.131" ry="1.131" transform="translate(511.669 904.276)"/>
        <ellipse id="Ellipse_25" data-name="Ellipse 25" class="cls-18" cx="1.131" cy="1.131" rx="1.131" ry="1.131" transform="translate(513.93 899)"/>
        <ellipse id="Ellipse_20" data-name="Ellipse 20" class="cls-18" cx="1.131" cy="1.131" rx="1.131" ry="1.131" transform="translate(518.453 905.784)"/>
        <ellipse id="Ellipse_18" data-name="Ellipse 18" class="cls-18" cx="1.131" cy="1.131" rx="1.131" ry="1.131" transform="translate(513.177 910.307)"/>
        <ellipse id="Ellipse_23" data-name="Ellipse 23" class="cls-18" cx="1.131" cy="1.131" rx="1.131" ry="1.131" transform="translate(523.73 899)"/>
        <ellipse id="Ellipse_24" data-name="Ellipse 24" class="cls-18" cx="1.131" cy="1.131" rx="1.131" ry="1.131" transform="translate(519.207 901.261)"/>
        <ellipse id="Ellipse_26" data-name="Ellipse 26" class="cls-18" cx="1.131" cy="1.131" rx="1.131" ry="1.131" transform="translate(507.9 901.261)"/>
        <ellipse id="Ellipse_17" data-name="Ellipse 17" class="cls-18" cx="1.131" cy="1.131" rx="1.131" ry="1.131" transform="translate(519.207 911.814)"/>
        <ellipse id="Ellipse_22" data-name="Ellipse 22" class="cls-18" cx="1.131" cy="1.131" rx="1.131" ry="1.131" transform="translate(527.499 903.523)"/>
        <ellipse id="Ellipse_21" data-name="Ellipse 21" class="cls-18" cx="1.131" cy="1.131" rx="1.131" ry="1.131" transform="translate(522.976 905.784)"/>
      </g>
      <path id="Path_1093" data-name="Path 1093" class="cls-19" d="M10.74,18.063a5.669,5.669,0,0,1-5.37,5.37A5.37,5.37,0,0,1,0,18.063C0,15.1,10.74,15.528,10.74,18.063Z" transform="translate(467.626 952)"/>
    </g>
  </g>
</svg>
