<?xml version="1.0" encoding="UTF-8"?>
<svg width="412px" height="412px" viewBox="0 0 412 412" version="1.1" xmlns="http://www.w3.org/2000/svg" xmlns:xlink="http://www.w3.org/1999/xlink">
    <!-- Generator: Sketch 61.2 (89653) - https://sketch.com -->
    <title>screen-4</title>
    <desc>Created with Sketch.</desc>
    <defs>
        <path d="M411.112,205.556 C411.112,319.082 319.081,411.112 205.556,411.112 C92.031,411.112 0,319.082 0,205.556 C0,92.03 92.03,0 205.556,0 C319.082,0 411.112,92.031 411.112,205.556" id="path-1"></path>
    </defs>
    <g id="Page-1" stroke="none" stroke-width="1" fill="none" fill-rule="evenodd">
        <g id="screen-4">
            <g id="Group_15" opacity="0.6" fill="#CECFD2" fill-rule="nonzero">
                <g id="Group_14">
                    <path d="M411.112,205.556 C411.112,319.082 319.081,411.112 205.556,411.112 C92.031,411.112 0,319.082 0,205.556 C0,92.03 92.03,0 205.556,0 C319.082,0 411.112,92.031 411.112,205.556" id="Path_105"></path>
                </g>
            </g>
            <g id="Group_35">
                <mask id="mask-2" fill="white">
                    <use xlink:href="#path-1"></use>
                </mask>
                <use id="Mask" fill-opacity="0" fill="#FFFFFF" fill-rule="nonzero" xlink:href="#path-1"></use>
                <g mask="url(#mask-2)">
                    <g transform="translate(61.000000, 114.000000)">
                        <g id="Group_16" transform="translate(0.791000, 20.372000)">
                            <path d="M268.349,375.036 C268.349,388.764 260.881,399.892 251.669,399.892 L16.68,399.892 C7.468,399.892 0,388.764 0,375.036 L0,24.852 C0,11.125 7.468,-0.004 16.68,-0.004 L251.669,-0.004 C260.881,-0.004 268.349,11.125 268.349,24.852 L268.349,375.036 Z" id="Path_107" fill="#A7A9AC" fill-rule="nonzero"></path>
                        </g>
                        <g id="Group_17" transform="translate(9.973000, 0.989000)">
                            <path d="M268.349,375.036 C268.349,388.764 260.881,399.892 251.669,399.892 L16.68,399.892 C7.468,399.892 0,388.764 0,375.036 L0,24.852 C0,11.125 7.468,-0.004 16.68,-0.004 L251.669,-0.004 C260.881,-0.004 268.349,11.125 268.349,24.852 L268.349,375.036 Z" id="Path_108" fill="#F0F1F1" fill-rule="nonzero"></path>
                        </g>
                        <g id="URL" transform="translate(84.244000, 45.939000)" font-family="Helvetica" font-size="57" font-weight="normal">
                            <text fill="#6C6D70">
                                <tspan x="0" y="55">URL</tspan>
                            </text>
                        </g>
                        <g id="Group" transform="translate(39.030000, 141.443000)" font-family="Helvetica" font-weight="normal">
                            <g id="WWW" transform="translate(0.000000, 1.000000)" fill="#2F6DB8" font-size="7">
                                <text>
                                    <tspan x="0" y="6">WWW</tspan>
                                </text>
                            </g>
                            <g id="_." transform="translate(20.980000, 0.000000)" fill="#2F6DB8" font-size="4">
                                <text id=".">
                                    <tspan x="0" y="4">.</tspan>
                                </text>
                            </g>
                        </g>
                        <g id="Group_18" transform="translate(66.912000, 144.742000)" stroke-linecap="round">
                            <line x1="0" y1="1" x2="2.04" y2="1" id="Path_109" stroke="#2F6DB8" stroke-width="2"></line>
                        </g>
                        <g id="Group_19" transform="translate(84.260000, 144.742000)" stroke-dasharray="8.191000000000001" stroke-linecap="round">
                            <line x1="0" y1="1" x2="165.038" y2="1" id="Path_110" stroke="#2F6DB8" stroke-width="2"></line>
                        </g>
                        <g id="Group-2" transform="translate(39.030000, 160.570000)" font-family="Helvetica" font-weight="normal">
                            <g id="WWW-2" transform="translate(0.000000, 1.000000)" fill="#BBBDC0" font-size="7">
                                <text id="WWW">
                                    <tspan x="0" y="6">WWW</tspan>
                                </text>
                            </g>
                            <g id="_.-2" transform="translate(20.980000, 0.000000)" fill="#BBBDC0" font-size="4">
                                <text id=".">
                                    <tspan x="0" y="4">.</tspan>
                                </text>
                            </g>
                        </g>
                        <g id="Group_21" transform="translate(66.912000, 163.869000)" stroke-linecap="round">
                            <line x1="0" y1="1" x2="2.04" y2="1" id="Path_112" stroke="#929497" stroke-width="2"></line>
                        </g>
                        <g id="Group_22" transform="translate(84.260000, 163.869000)" stroke-dasharray="8.191000000000001" stroke-linecap="round">
                            <line x1="0" y1="1" x2="165.038" y2="1" id="Path_113" stroke="#929497" stroke-width="2"></line>
                        </g>
                        <g id="Group_23" transform="translate(240.258000, 163.869000)" stroke-linecap="round">
                            <line x1="0" y1="1" x2="2.04" y2="1" id="Path_114" stroke="#929497" stroke-width="2"></line>
                        </g>
                        <g id="Group-3" transform="translate(39.030000, 179.697000)" font-family="Helvetica" font-weight="normal">
                            <g id="WWW-3" transform="translate(0.000000, 1.000000)" fill="#BBBDC0" font-size="7">
                                <text id="WWW">
                                    <tspan x="0" y="6">WWW</tspan>
                                </text>
                            </g>
                            <g id="_.-3" transform="translate(20.980000, 0.000000)" fill="#BBBDC0" font-size="4">
                                <text id=".">
                                    <tspan x="0" y="4">.</tspan>
                                </text>
                            </g>
                        </g>
                        <g id="Group_24" transform="translate(66.912000, 182.996000)" stroke-linecap="round">
                            <line x1="0" y1="1" x2="2.04" y2="1" id="Path_115" stroke="#929497" stroke-width="2"></line>
                        </g>
                        <g id="Group_25" transform="translate(73.131000, 182.996000)" stroke-dasharray="8.191000000000001" stroke-linecap="round">
                            <line x1="0" y1="1" x2="165.038" y2="1" id="Path_116" stroke="#929497" stroke-width="2"></line>
                        </g>
                        <g id="Group-4" transform="translate(39.030000, 198.824000)" font-family="Helvetica" font-weight="normal">
                            <g id="WWW-4" transform="translate(0.000000, 1.000000)" fill="#BBBDC0" font-size="7">
                                <text id="WWW">
                                    <tspan x="0" y="6">WWW</tspan>
                                </text>
                            </g>
                            <g id="_.-4" transform="translate(32.110000, 0.000000)" fill="#BBBDC0" font-size="4">
                                <text id=".">
                                    <tspan x="0" y="4">.</tspan>
                                </text>
                            </g>
                        </g>
                        <g id="Group_27" transform="translate(66.912000, 202.123000)" stroke-linecap="round">
                            <line x1="0" y1="1" x2="2.04" y2="1" id="Path_118" stroke="#929497" stroke-width="3.267"></line>
                        </g>
                        <g id="Group_28" transform="translate(84.260000, 202.123000)" stroke-dasharray="8.191000000000001" stroke-linecap="round">
                            <line x1="0" y1="1" x2="165.038" y2="1" id="Path_119" stroke="#929497" stroke-width="2"></line>
                        </g>
                        <g id="Group-5" transform="translate(27.900000, 213.004000)" font-family="Helvetica" font-weight="normal">
                            <g id="WWW-5" transform="translate(0.000000, 1.000000)" fill="#BBBDC0" font-size="7">
                                <text id="WWW">
                                    <tspan x="0" y="6">WWW</tspan>
                                </text>
                            </g>
                            <g id="_.-5" transform="translate(32.110000, 0.000000)" fill="#BBBDC0" font-size="4">
                                <text id=".">
                                    <tspan x="0" y="4">.</tspan>
                                </text>
                            </g>
                        </g>
                        <g id="Group_30" transform="translate(66.912000, 221.250000)" stroke-linecap="round">
                            <line x1="0" y1="1" x2="2.04" y2="1" id="Path_121" stroke="#929497" stroke-width="3.267"></line>
                        </g>
                        <g id="Group_31" transform="translate(84.260000, 221.250000)" stroke-dasharray="8.191000000000001" stroke-linecap="round">
                            <line x1="0" y1="1" x2="165.038" y2="1" id="Path_122" stroke="#929497" stroke-width="2"></line>
                        </g>
                        <g id="Group_33" transform="translate(0.290000, 145.742000)">
                            <path d="M85.427,81.219 C84.9190282,80.766541 84.5768961,80.1572502 84.455,79.488 C84.355,79.16 84.629,78.714 84.746,78.325 C88.6533333,65.2363333 92.5603333,52.148 96.467,39.06 C99.2056667,29.86 101.931,20.6583333 104.643,11.455 C105.704873,7.66470253 104.18219,3.62392243 100.883,1.477 C97.126,-0.856 93.016,-0.345 89.403,2.45 C88.4051314,3.34829872 87.7070279,4.53123496 87.403,5.839 C82.986,17.575 78.661,29.345 74.316,41.108 C70.342,51.8686667 66.3716667,62.6306667 62.405,73.394 C62.3372409,73.5832143 62.2546511,73.7667845 62.158,73.943 C61.758,74.651 62.886,75.257 61.973,74.864 C61,74.445 61.681,75.152 61.991,74.314 C63.856,69.269 65.682,64.223 67.558,59.181 C68.69,56.136 70.09,51.581 71.224,48.542 C71.414,48.032 71.86,47.5 72.031,46.933 C65.689,47.133 58.706,48.597 56.56,54.603 C55.44,57.739 53.804,60.692 52.372,63.714 C52.277,63.914 51.93,63.996 51.703,64.134 C51.7338532,64.6485298 51.6863101,65.1647602 51.562,65.665 C50.446,68.327 49.321,70.988 48.091,73.599 C46.963,75.999 45.569,78.271 44.533,80.699 C43.565,82.97 42.921,85.379 42.119,87.723 C41.806,88.636 42.803,89.073 41.745,88.589 C40.825,88.168 41.745,88.589 42.119,87.723 C45.434,80.052 48.346,72.479 51.69,64.823 C51.8045751,64.394276 52.0415631,64.0082148 52.372,63.712 C52.354,63.165 52.907,62.758 53.072,62.271 C53.436,61.186 54.317,59.85 54.815,58.714 C48.84,58.914 40.79,59.814 38.899,66.071 C37.958,69.188 36.127,72.03 34.761,75.024 C32.779,79.367 30.856,83.737 28.902,88.092 C28.528,88.925 28.045,89.744 26.966,89.243 C25.84,88.72 27.33,90.264 27.766,89.374 C30.129,90.563 29.353,87.074 29.394,86.984 C31.957,81.231 34.719,75.117 37.303,69.374 C38.565,66.569 39.149,65.985 40.455,63.185 C35.406,62.046 26.946,63.619 25.381,68.385 C24.626,70.685 23.219,72.771 22.216,75.003 C20.352,79.151 18.631,83.365 16.724,87.493 C15.709,89.693 14.381,91.738 13.284,93.9 C11.498,97.419 11.102,101.281 10.807,105.124 C10.3196656,112.482738 10.6688996,119.873011 11.848,127.153 C11.9967834,128.196913 11.9252473,129.260416 11.638,130.275 C8.023,142.796 4.347,155.3 0.696,167.811 C0.444,168.675 0.261,169.559 -0.004,170.63 L54.678,185.162 C55.551,182.22 56.398,179.427 57.208,176.624 C58.787,171.162 60.317,165.686 61.945,160.239 C62.1709457,159.477605 62.6491293,158.815694 63.301,158.362 C68.148,155.449 72.142,151.562 75.996,147.501 C83.958,139.108 90.532,129.62 97.419,120.38 C100.042,116.861 102.626,113.313 105.262,109.804 C105.633407,109.386859 106.072997,109.035863 106.562,108.766 C109.166224,107.244605 111.310308,105.046961 112.767,102.406 C113.434212,101.121878 113.734545,99.678687 113.635,98.235 C112.269,86.843 110.669,75.479 109.322,64.085 C108.897,60.496 106.481,58.828 103.71,57.718 C101.164,56.699 98.333,56.382 95.618,55.799 C94.756,55.614 94.226,55.964 93.971,56.906 C93.271,59.506 92.412,62.058 91.752,64.665 C91.6525475,65.3328629 91.8302799,66.0123641 92.244,66.546 C93.0567054,67.5224239 93.9734565,68.4073201 94.978,69.185 C95.8718002,69.78819 96.3628716,70.8329165 96.257,71.906 C95.817,78.952 95.507,86.006 94.934,93.043 C94.848,94.1 93.691,95.137 92.858,96.022 C92.636,96.258 91.59,96.084 91.269,95.757 C90.941766,95.2943054 90.8785199,94.6947927 91.102,94.174" id="Path_124" fill="#A7A9AC" fill-rule="nonzero"></path>
                        </g>
                        <g id="Group_42" transform="translate(97.523000, 134.697000)" opacity="0.2">
                            <g id="Group_41" fill="#BBBDC0" fill-rule="nonzero">
                                <g id="Group_40">
                                    <g id="Group_39">
                                        <g id="Group_38">
                                            <g id="Group_37">
                                                <path d="M20.9110002,10.456 C20.9115305,7.68264182 19.8101217,5.02270625 17.8491551,3.06155207 C15.8881884,1.10039789 13.2283582,-0.00126531696 10.455,-0.00100043109 C7.68129529,-0.00179594886 5.02095115,1.099633 3.05955189,3.06084471 C1.09815263,5.02205642 -0.00353071293,7.68229523 -0.00300019166,10.456 C-0.00300019166,13.2293583 1.09891746,15.8890832 3.06025919,17.8498623 C5.02160092,19.8106414 7.68164185,20.9117958 10.455,20.9110004 C13.2280117,20.9112652 15.8875387,19.8098766 17.8484479,17.849155 C19.809357,15.8884334 20.9110002,13.2290117 20.9110002,10.456" id="Path_127"></path>
                                            </g>
                                        </g>
                                    </g>
                                </g>
                            </g>
                        </g>
                        <g id="Group_34" transform="translate(5.265000, 144.595000)">
                            <path d="M85.427,81.219 C84.9190282,80.766541 84.5768961,80.1572502 84.455,79.488 C84.355,79.16 84.629,78.714 84.746,78.325 C88.6533333,65.237 92.5603333,52.1486667 96.467,39.06 C99.2056667,29.86 101.931,20.6583333 104.643,11.455 C105.704873,7.66470253 104.18219,3.62392243 100.883,1.477 C97.126,-0.856 93.016,-0.345 89.403,2.45 C88.4051314,3.34829872 87.7070279,4.53123496 87.403,5.839 C82.986,17.575 78.661,29.345 74.316,41.108 C70.342,51.8686667 66.3716667,62.6306667 62.405,73.394 C62.3372409,73.5832143 62.2546511,73.7667845 62.158,73.943 C61.758,74.651 62.886,75.257 61.973,74.864 C61,74.445 61.681,75.152 61.991,74.314 C63.856,69.269 65.682,64.223 67.558,59.181 C68.69,56.136 70.09,51.581 71.224,48.542 C71.414,48.032 71.86,47.5 72.031,46.933 C65.689,47.133 58.706,48.597 56.56,54.603 C55.44,57.739 53.804,60.692 52.372,63.714 C52.277,63.914 51.93,63.996 51.703,64.134 C51.7338532,64.6485298 51.6863101,65.1647602 51.562,65.665 C50.446,68.327 49.321,70.988 48.091,73.599 C46.963,75.999 45.569,78.271 44.533,80.699 C43.565,82.97 42.921,85.379 42.119,87.723 C41.806,88.636 42.803,89.073 41.745,88.589 C40.825,88.168 41.745,88.589 42.119,87.723 C45.434,80.052 48.346,72.479 51.69,64.823 C51.8045751,64.394276 52.0415631,64.0082148 52.372,63.712 C52.354,63.165 52.907,62.758 53.072,62.271 C53.436,61.186 54.317,59.85 54.815,58.714 C48.84,58.914 40.79,59.814 38.899,66.071 C37.958,69.188 36.127,72.03 34.761,75.024 C32.779,79.367 30.856,83.737 28.902,88.092 C28.528,88.925 28.045,89.744 26.966,89.243 C25.84,88.72 27.33,90.264 27.766,89.374 C30.129,90.563 29.353,87.074 29.394,86.984 C31.957,81.231 34.719,75.117 37.303,69.374 C38.565,66.569 39.149,65.985 40.455,63.185 C35.406,62.046 26.946,63.619 25.381,68.385 C24.626,70.685 23.219,72.771 22.216,75.003 C20.352,79.151 18.631,83.365 16.724,87.493 C15.709,89.693 14.381,91.738 13.284,93.9 C11.498,97.419 11.102,101.281 10.807,105.124 C10.3196656,112.482738 10.6688996,119.873011 11.848,127.153 C11.9967834,128.196913 11.9252473,129.260416 11.638,130.275 C8.023,142.796 4.347,155.3 0.696,167.811 C0.444,168.675 0.261,169.559 -0.004,170.63 L54.678,185.162 C55.551,182.22 56.398,179.427 57.208,176.624 C58.787,171.162 60.317,165.686 61.945,160.239 C62.1709457,159.477605 62.6491293,158.815694 63.301,158.362 C68.148,155.449 72.142,151.562 75.996,147.501 C83.958,139.108 90.532,129.62 97.419,120.38 C100.042,116.861 102.626,113.313 105.262,109.804 C105.633554,109.387014 106.073116,109.03604 106.562,108.766 C109.166224,107.244605 111.310308,105.046961 112.767,102.406 C113.434212,101.121878 113.734545,99.678687 113.635,98.235 C112.269,86.843 110.669,75.479 109.322,64.085 C108.897,60.496 106.481,58.828 103.71,57.718 C101.164,56.699 98.333,56.382 95.618,55.799 C94.756,55.614 94.226,55.964 93.971,56.906 C93.271,59.506 92.412,62.058 91.752,64.665 C91.6525475,65.3328629 91.8302799,66.0123641 92.244,66.546 C93.0567054,67.5224239 93.9734565,68.4073201 94.978,69.185 C95.8718002,69.78819 96.3628716,70.8329165 96.257,71.906 C95.817,78.952 95.507,86.006 94.934,93.043 C94.848,94.1 93.691,95.137 92.858,96.022 C92.636,96.258 91.59,96.084 91.269,95.757 C90.941766,95.2943054 90.8785199,94.6947927 91.102,94.174" id="Path_125" fill="#EFC3A4" fill-rule="nonzero"></path>
                        </g>
                    </g>
                </g>
            </g>
        </g>
    </g>
</svg>