<svg xmlns="http://www.w3.org/2000/svg" xmlns:xlink="http://www.w3.org/1999/xlink" viewBox="0 0 352.048 334.849">
  <defs>
    <style>
      .cls-1 {
        fill: #cdcfd2;
      }

      .cls-2, .cls-8 {
        fill: none;
      }

      .cls-3 {
        clip-path: url(#clip-path);
      }

      .cls-4 {
        fill: #7b7c7f;
        font-size: 55px;
      }

      .cls-4, .cls-5, .cls-6 {
        font-family: Helvetica-Bold, Helvetica;
        font-weight: 700;
        letter-spacing: -0.05em;
      }

      .cls-5 {
        fill: #a7a9ac;
      }

      .cls-5, .cls-6 {
        font-size: 85px;
      }

      .cls-6 {
        fill: #f0f1f1;
      }

      .cls-7 {
        clip-path: url(#clip-path-2);
      }

      .cls-8 {
        stroke: #fff;
        stroke-linecap: round;
        stroke-width: 2.881px;
      }

      .cls-9 {
        fill: #fff;
      }
    </style>
    <clipPath id="clip-path">
      <path id="Path_1084" data-name="Path 1084" class="cls-1" d="M0-928.038H352.048v334.849H0Z" transform="translate(0 928.038)"/>
    </clipPath>
    <clipPath id="clip-path-2">
      <path id="Path_1086" data-name="Path 1086" class="cls-2" d="M0-256.33H323.98v93.967H0Z" transform="translate(0 256.33)"/>
    </clipPath>
  </defs>
  <g id="Group_1018" data-name="Group 1018" transform="translate(-11.785 -166.227)">
    <g id="Group_1002" data-name="Group 1002" transform="translate(11.785 166.227)">
      <g id="Group_1001" data-name="Group 1001" class="cls-3" transform="translate(0 0)">
        <g id="Group_998" data-name="Group 998" transform="translate(31.822 254.551)">
          <path id="Path_1081" data-name="Path 1081" class="cls-1" d="M-261.795-66.959c0,20.875-45.513-17.655-72.469,37.8-9.947,20.462-75.311-31.546-75.311-47.176,0-20.875,35.288-28.419,75.311-28.419s72.469,16.923,72.469,37.8" transform="translate(409.575 104.757)"/>
        </g>
        <g id="Group_999" data-name="Group 999" transform="translate(0 0)">
          <path id="Path_1082" data-name="Path 1082" class="cls-1" d="M-589.588-265.056c76.012,7.865-94.94,233.676-137.552,139.177-36.83-81.674-310.934-97.595-139.178-137.552,74.43-17.315,82.6-111.194,137.552-139.178,118.643-60.422,18.254,125.04,139.177,137.552" transform="translate(922.403 414.677)"/>
        </g>
        <g id="Group_1000" data-name="Group 1000" transform="translate(39.35 36.576)">
          <path id="Path_1083" data-name="Path 1083" class="cls-1" d="M-175.187-12.811c2.2,22.591-64.124,92.672-86.715,94.87s12.387-35.5-4.887-50.228c-17.84-15.206.909-62.721,15.262-45.137,13.9,17.03,74.142-22.1,76.34.5" transform="translate(274.078 20.043)"/>
        </g>
      </g>
    </g>
    <text id="Don_t_wait" data-name="Don’t wait" class="cls-4" transform="translate(152.597 271.598)"><tspan x="-119.002" y="0">Don’t wait</tspan></text>
    <text id="SNAP_IT" data-name="SNAP IT" class="cls-5" transform="translate(185.597 361.764)"><tspan x="-154.158" y="0">SNAP IT</tspan></text>
    <text id="SNAP_IT-2" data-name="SNAP IT" class="cls-6" transform="translate(188.597 361.764)"><tspan x="-154.158" y="0">SNAP IT</tspan></text>
    <text id="Now.." class="cls-4" transform="translate(100.597 424.022)"><tspan x="-66.822" y="0">Now..</tspan></text>
    <g id="Group_1005" data-name="Group 1005" transform="translate(25.279 278.068)">
      <g id="Group_1003" data-name="Group 1003" class="cls-7" transform="translate(0 5.441)">
        <path id="Path_1085" data-name="Path 1085" class="cls-8" d="M320.283-156.375H1.456v-89.668H320.283Z" transform="translate(1.134 249.814)"/>
      </g>
      <path id="Path_1087" data-name="Path 1087" class="cls-9" d="M0-246.413H81.5v-9.917H0Z" transform="translate(1.118 256.33)"/>
    </g>
  </g>
</svg>
