<svg xmlns="http://www.w3.org/2000/svg" xmlns:xlink="http://www.w3.org/1999/xlink" viewBox="0 0 416.112 534.265">
  <defs>
    <style>
      .cls-1 {
        fill: #cecfd2;
      }

      .cls-10, .cls-2, .cls-9 {
        fill: #2f6db8;
      }

      .cls-11, .cls-12, .cls-15, .cls-16, .cls-17, .cls-3 {
        fill: none;
      }

      .cls-4 {
        opacity: 0.6;
        clip-path: url(#clip-path);
      }

      .cls-5 {
        clip-path: url(#clip-path-2);
      }

      .cls-6 {
        fill: #a7a9ac;
      }

      .cls-7 {
        fill: #f0f1f1;
      }

      .cls-8 {
        fill: #6c6d70;
        font-size: 57px;
      }

      .cls-10, .cls-13, .cls-14, .cls-8, .cls-9 {
        font-family: NotoSansSC-Black, Noto Sans SC;
        font-weight: 800;
      }

      .cls-13, .cls-9 {
        font-size: 7px;
      }

      .cls-10, .cls-14 {
        font-size: 4px;
      }

      .cls-11, .cls-12 {
        stroke: #2f6db8;
      }

      .cls-11, .cls-12, .cls-15, .cls-16, .cls-17 {
        stroke-linecap: round;
      }

      .cls-11, .cls-12, .cls-15, .cls-16 {
        stroke-width: 2px;
      }

      .cls-12, .cls-16 {
        stroke-dasharray: 8.191 8.191;
      }

      .cls-13, .cls-14, .cls-21 {
        fill: #bbbdc0;
      }

      .cls-15, .cls-16, .cls-17 {
        stroke: #929497;
      }

      .cls-17 {
        stroke-width: 3.267px;
      }

      .cls-18 {
        clip-path: url(#clip-path-3);
      }

      .cls-19 {
        opacity: 0.2;
      }

      .cls-20 {
        clip-path: url(#clip-path-4);
      }

      .cls-22 {
        fill: #efc3a4;
      }
    </style>
    <clipPath id="clip-path">
      <path id="Path_106" data-name="Path 106" class="cls-1" d="M0-1047.418H411.112v534.265H0Z" transform="translate(0 1047.418)"/>
    </clipPath>
    <clipPath id="clip-path-2">
      <path id="Path_126" data-name="Path 126" class="cls-2" d="M205.556-1047.417C92.031-1047.417,0-955.387,0-841.861H0C0-728.335,92.031-636.3,205.556-636.3h0c113.526,0,205.557-92.03,205.557-205.556h0C411.113-955.387,319.082-1047.417,205.556-1047.417Z" transform="translate(0 1047.417)"/>
    </clipPath>
    <clipPath id="clip-path-3">
      <path id="Path_128" data-name="Path 128" class="cls-3" d="M0-51H20.911v20.911H0Z" transform="translate(0 50.997)"/>
    </clipPath>
    <clipPath id="clip-path-4">
      <rect id="Rectangle_374" data-name="Rectangle 374" class="cls-3" width="20.911" height="20.911"/>
    </clipPath>
  </defs>
  <g id="Group_36" data-name="Group 36" transform="translate(5 1047.418)">
    <g id="Group_15" data-name="Group 15" class="cls-4" transform="translate(0 -1047.418)">
      <g id="Group_14" data-name="Group 14" transform="translate(0 0)">
        <path id="Path_105" data-name="Path 105" class="cls-1" d="M-394.867-197.434c0,113.526-92.031,205.556-205.556,205.556S-805.979-83.908-805.979-197.434s92.03-205.556,205.556-205.556,205.556,92.031,205.556,205.556" transform="translate(805.979 402.99)"/>
      </g>
    </g>
    <g id="Group_35" data-name="Group 35" class="cls-5" transform="translate(-5 -1047.418)">
      <g id="Group_16" data-name="Group 16" transform="translate(66.791 134.372)">
        <path id="Path_107" data-name="Path 107" class="cls-6" d="M-257.744-360.216c0,13.728-7.468,24.856-16.68,24.856H-509.413c-9.212,0-16.68-11.128-16.68-24.856V-710.4c0-13.727,7.468-24.856,16.68-24.856h234.989c9.212,0,16.68,11.129,16.68,24.856Z" transform="translate(526.093 735.252)"/>
      </g>
      <g id="Group_17" data-name="Group 17" transform="translate(75.973 114.989)">
        <path id="Path_108" data-name="Path 108" class="cls-7" d="M-257.744-360.216c0,13.728-7.468,24.856-16.68,24.856H-509.413c-9.212,0-16.68-11.128-16.68-24.856V-710.4c0-13.727,7.468-24.856,16.68-24.856h234.989c9.212,0,16.68,11.129,16.68,24.856Z" transform="translate(526.093 735.252)"/>
      </g>
      <text id="URL" class="cls-8" transform="translate(150.244 214.939)"><tspan x="0" y="0">URL</tspan></text>
      <g id="Group" transform="translate(105.03 254.443)">
        <text id="WWW" class="cls-9" transform="translate(0 8)"><tspan x="0" y="0">WWW</tspan></text>
        <text id="_." data-name="." class="cls-10" transform="translate(20.98 5)"><tspan x="0" y="0">.</tspan></text>
      </g>
      <g id="Group_18" data-name="Group 18" transform="translate(132.912 259.742)">
        <path id="Path_109" data-name="Path 109" class="cls-11" d="M0,0H2.04"/>
      </g>
      <g id="Group_19" data-name="Group 19" transform="translate(150.26 259.742)">
        <path id="Path_110" data-name="Path 110" class="cls-12" d="M0,0H165.038"/>
      </g>
      <g id="Group-2" data-name="Group" transform="translate(105.03 273.57)">
        <text id="WWW-2" data-name="WWW" class="cls-13" transform="translate(0 8)"><tspan x="0" y="0">WWW</tspan></text>
        <text id="_.-2" data-name="." class="cls-14" transform="translate(20.98 5)"><tspan x="0" y="0">.</tspan></text>
      </g>
      <g id="Group_21" data-name="Group 21" transform="translate(132.912 278.869)">
        <path id="Path_112" data-name="Path 112" class="cls-15" d="M0,0H2.04"/>
      </g>
      <g id="Group_22" data-name="Group 22" transform="translate(150.26 278.869)">
        <path id="Path_113" data-name="Path 113" class="cls-16" d="M0,0H165.038"/>
      </g>
      <g id="Group_23" data-name="Group 23" transform="translate(306.258 278.869)">
        <path id="Path_114" data-name="Path 114" class="cls-15" d="M0,0H2.04"/>
      </g>
      <g id="Group-3" data-name="Group" transform="translate(105.03 292.697)">
        <text id="WWW-3" data-name="WWW" class="cls-13" transform="translate(0 8)"><tspan x="0" y="0">WWW</tspan></text>
        <text id="_.-3" data-name="." class="cls-14" transform="translate(20.98 5)"><tspan x="0" y="0">.</tspan></text>
      </g>
      <g id="Group_24" data-name="Group 24" transform="translate(132.912 297.996)">
        <path id="Path_115" data-name="Path 115" class="cls-15" d="M0,0H2.04"/>
      </g>
      <g id="Group_25" data-name="Group 25" transform="translate(139.131 297.996)">
        <path id="Path_116" data-name="Path 116" class="cls-16" d="M0,0H165.038"/>
      </g>
      <g id="Group-4" data-name="Group" transform="translate(105.03 311.824)">
        <text id="WWW-4" data-name="WWW" class="cls-13" transform="translate(0 8)"><tspan x="0" y="0">WWW</tspan></text>
        <text id="_.-4" data-name="." class="cls-14" transform="translate(32.11 5)"><tspan x="0" y="0">.</tspan></text>
      </g>
      <g id="Group_27" data-name="Group 27" transform="translate(132.912 317.123)">
        <path id="Path_118" data-name="Path 118" class="cls-17" d="M0,0H2.04"/>
      </g>
      <g id="Group_28" data-name="Group 28" transform="translate(150.26 317.123)">
        <path id="Path_119" data-name="Path 119" class="cls-16" d="M0,0H165.038"/>
      </g>
      <g id="Group-5" data-name="Group" transform="translate(93.9 326.004)">
        <text id="WWW-5" data-name="WWW" class="cls-13" transform="translate(0 8)"><tspan x="0" y="0">WWW</tspan></text>
        <text id="_.-5" data-name="." class="cls-14" transform="translate(32.11 5)"><tspan x="0" y="0">.</tspan></text>
      </g>
      <g id="Group_30" data-name="Group 30" transform="translate(132.912 336.25)">
        <path id="Path_121" data-name="Path 121" class="cls-17" d="M0,0H2.04"/>
      </g>
      <g id="Group_31" data-name="Group 31" transform="translate(150.26 336.25)">
        <path id="Path_122" data-name="Path 122" class="cls-16" d="M0,0H165.038"/>
      </g>
      <g id="Group_33" data-name="Group 33" transform="translate(66.29 259.742)">
        <path id="Path_124" data-name="Path 124" class="cls-6" d="M-82.051-78.009a3.05,3.05,0,0,1-.972-1.731c-.1-.328.174-.774.291-1.163q5.861-19.633,11.721-39.265,4.108-13.8,8.176-27.605a9.006,9.006,0,0,0-3.76-9.978c-3.757-2.333-7.867-1.822-11.48.973a6.558,6.558,0,0,0-2,3.389c-4.417,11.736-8.742,23.506-13.087,35.269q-5.961,16.141-11.911,32.286a3.819,3.819,0,0,1-.247.549c-.4.708.728,1.314-.185.921-.973-.419-.292.288.018-.55,1.865-5.045,3.691-10.091,5.567-15.133,1.132-3.045,2.532-7.6,3.666-10.639.19-.51.636-1.042.807-1.609-6.342.2-13.325,1.664-15.471,7.67-1.12,3.136-2.756,6.089-4.188,9.111-.095.2-.442.282-.669.42a5.086,5.086,0,0,1-.141,1.531c-1.116,2.662-2.241,5.323-3.471,7.934-1.128,2.4-2.522,4.672-3.558,7.1-.968,2.271-1.612,4.68-2.414,7.024-.313.913.684,1.35-.374.866-.92-.421,0,0,.374-.866,3.315-7.671,6.227-15.244,9.571-22.9a2.284,2.284,0,0,1,.682-1.111c-.018-.547.535-.954.7-1.441.364-1.085,1.245-2.421,1.743-3.557-5.975.2-14.025,1.1-15.916,7.357-.941,3.117-2.772,5.959-4.138,8.953-1.982,4.343-3.905,8.713-5.859,13.068-.374.833-.857,1.652-1.936,1.151-1.126-.523.364,1.021.8.131,2.363,1.189,1.587-2.3,1.628-2.39,2.563-5.753,5.325-11.867,7.909-17.61,1.262-2.805,1.846-3.389,3.152-6.189-5.049-1.139-13.509.434-15.074,5.2-.755,2.3-2.162,4.386-3.165,6.618-1.864,4.148-3.585,8.362-5.492,12.49-1.015,2.2-2.343,4.245-3.44,6.407-1.786,3.519-2.182,7.381-2.477,11.224a97.49,97.49,0,0,0,1.041,22.029,7.55,7.55,0,0,1-.21,3.122c-3.615,12.521-7.291,25.025-10.942,37.536-.252.864-.435,1.748-.7,2.819L-112.8,25.934c.873-2.942,1.72-5.735,2.53-8.538,1.579-5.462,3.109-10.938,4.737-16.385a3.5,3.5,0,0,1,1.356-1.877c4.847-2.913,8.841-6.8,12.695-10.861,7.962-8.393,14.536-17.881,21.423-27.121,2.623-3.519,5.207-7.067,7.843-10.576a4.93,4.93,0,0,1,1.3-1.038,16.716,16.716,0,0,0,6.205-6.36,7.872,7.872,0,0,0,.868-4.171c-1.366-11.392-2.966-22.756-4.313-34.15-.425-3.589-2.841-5.257-5.612-6.367-2.546-1.019-5.377-1.336-8.092-1.919-.862-.185-1.392.165-1.647,1.107-.7,2.6-1.559,5.152-2.219,7.759a2.475,2.475,0,0,0,.492,1.881A17.476,17.476,0,0,0-72.5-90.043a2.935,2.935,0,0,1,1.279,2.721c-.44,7.046-.75,14.1-1.323,21.137-.086,1.057-1.243,2.094-2.076,2.979-.222.236-1.268.062-1.589-.265a1.629,1.629,0,0,1-.167-1.583" transform="translate(167.478 159.228)"/>
      </g>
      <g id="Group_42" data-name="Group 42" transform="translate(163.523 248.697)">
        <g id="Group_41" data-name="Group 41" class="cls-18" transform="translate(0 0)">
          <g id="Group_40" data-name="Group 40" class="cls-19" transform="translate(0 0)">
            <g id="Group_39" data-name="Group 39">
              <g id="Group_38" data-name="Group 38" class="cls-20">
                <g id="Group_37" data-name="Group 37" transform="translate(0 0)">
                  <path id="Path_127" data-name="Path 127" class="cls-21" d="M-30.086-15.043A10.455,10.455,0,0,0-40.542-25.5,10.455,10.455,0,0,0-51-15.043,10.455,10.455,0,0,0-40.542-4.588,10.455,10.455,0,0,0-30.086-15.043" transform="translate(50.997 25.499)"/>
                </g>
              </g>
            </g>
          </g>
        </g>
      </g>
      <g id="Group_34" data-name="Group 34" transform="translate(71.265 258.595)">
        <path id="Path_125" data-name="Path 125" class="cls-22" d="M-82.051-78.009a3.05,3.05,0,0,1-.972-1.731c-.1-.328.174-.774.291-1.163q5.861-19.632,11.721-39.265,4.108-13.8,8.176-27.605a9.006,9.006,0,0,0-3.76-9.978c-3.757-2.333-7.867-1.822-11.48.973a6.558,6.558,0,0,0-2,3.389c-4.417,11.736-8.742,23.506-13.087,35.269q-5.961,16.141-11.911,32.286a3.819,3.819,0,0,1-.247.549c-.4.708.728,1.314-.185.921-.973-.419-.292.288.018-.55,1.865-5.045,3.691-10.091,5.567-15.133,1.132-3.045,2.532-7.6,3.666-10.639.19-.51.636-1.042.807-1.609-6.342.2-13.325,1.664-15.471,7.67-1.12,3.136-2.756,6.089-4.188,9.111-.095.2-.442.282-.669.42a5.086,5.086,0,0,1-.141,1.531c-1.116,2.662-2.241,5.323-3.471,7.934-1.128,2.4-2.522,4.672-3.558,7.1-.968,2.271-1.612,4.68-2.414,7.024-.313.913.684,1.35-.374.866-.92-.421,0,0,.374-.866,3.315-7.671,6.227-15.244,9.571-22.9a2.284,2.284,0,0,1,.682-1.111c-.018-.547.535-.954.7-1.441.364-1.085,1.245-2.421,1.743-3.557-5.975.2-14.025,1.1-15.916,7.357-.941,3.117-2.772,5.959-4.138,8.953-1.982,4.343-3.905,8.713-5.859,13.068-.374.833-.857,1.652-1.936,1.151-1.126-.523.364,1.021.8.131,2.363,1.189,1.587-2.3,1.628-2.39,2.563-5.753,5.325-11.867,7.909-17.61,1.262-2.805,1.846-3.389,3.152-6.189-5.049-1.139-13.509.434-15.074,5.2-.755,2.3-2.162,4.386-3.165,6.618-1.864,4.148-3.585,8.362-5.492,12.49-1.015,2.2-2.343,4.245-3.44,6.407-1.786,3.519-2.182,7.381-2.477,11.224a97.49,97.49,0,0,0,1.041,22.029,7.55,7.55,0,0,1-.21,3.122c-3.615,12.521-7.291,25.025-10.942,37.536-.252.864-.435,1.748-.7,2.819L-112.8,25.934c.873-2.942,1.72-5.735,2.53-8.538,1.579-5.462,3.109-10.938,4.737-16.385a3.5,3.5,0,0,1,1.356-1.877c4.847-2.913,8.841-6.8,12.695-10.861,7.962-8.393,14.536-17.881,21.423-27.121,2.623-3.519,5.207-7.067,7.843-10.576a4.941,4.941,0,0,1,1.3-1.038,16.716,16.716,0,0,0,6.205-6.36,7.872,7.872,0,0,0,.868-4.171c-1.366-11.392-2.966-22.756-4.313-34.15-.425-3.589-2.841-5.257-5.612-6.367-2.546-1.019-5.377-1.336-8.092-1.919-.862-.185-1.392.165-1.647,1.107-.7,2.6-1.559,5.152-2.219,7.759a2.475,2.475,0,0,0,.492,1.881A17.476,17.476,0,0,0-72.5-90.043a2.935,2.935,0,0,1,1.279,2.721c-.44,7.046-.75,14.1-1.323,21.137-.086,1.057-1.243,2.094-2.076,2.979-.222.236-1.268.062-1.589-.265a1.629,1.629,0,0,1-.167-1.583" transform="translate(167.478 159.228)"/>
      </g>
    </g>
  </g>
</svg>
